<svg xmlns="http://www.w3.org/2000/svg" viewBox="0 0 293 113" width="293" height="113"><defs><style>.cls-1{fill:none}.cls-2{fill:#fff}.cls-3{fill:#006a53}.cls-4{clip-path:url(#clip-path)}.cls-5{fill:url(#linear-gradient)}</style><clipPath id="clip-path"><path class="cls-1" d="M119.4 57.92h17.23a18.36 18.36 0 0 1 3.76-3.52l-14.75-5.06a56.18 56.18 0 0 0-6.24 8.58m67.74-2.08a12.14 12.14 0 0 1 0 2.08h30.94A31.58 31.58 0 0 0 217 45zm-55.79-12.41l15.1 7.47a53.56 53.56 0 0 1 5.83-2.29l-11.49-12.79a86.1 86.1 0 0 0-9.44 7.61m50 4.68a11.12 11.12 0 0 1 3.91 3l26.16-16a33.11 33.11 0 0 0-13.76-9zm-31.6-17.71l9.57 16.38c1.49-.29 3-.52 4.48-.68L160.34 26a69.78 69.78 0 0 0-10.59 4.44M178.32 23a54.87 54.87 0 0 0-6.93.45L170 45.83a39.92 39.92 0 0 1 4.64.36l10.52-22.85a67.83 67.83 0 0 0-6.84-.34z"/></clipPath><linearGradient id="linear-gradient" x1="-274.21" y1="353.81" x2="-273.88" y2="353.81" gradientTransform="matrix(-302.35 0 0 302.35 -82690.32 -106936.45)" gradientUnits="userSpaceOnUse"><stop offset="0" stop-color="#93c01f"/><stop offset=".51" stop-color="#06797a"/><stop offset="1" stop-color="#006a53"/></linearGradient></defs><path class="cls-2" d="M293 112H0c.6 0 3.34-5.23 3.69-5.75 3.49-5.23 7.19-10.33 11-15.3a291.66 291.66 0 0 1 42.16-44.41C99.23 10.62 153.23-6.69 208.61 2.48c12.94 2.15 24.08 5.65 35 12.88a93.12 93.12 0 0 1 21.69 20.09c10.73 13.6 17.93 29.76 22.47 46.4 2.7 9.75 4.83 20.01 5.23 30.15z"/><path class="cls-3" d="M226.55 87.64c-1.81 0-2.79-.63-2.79-1.74s.87-1.68 2.63-1.79l4-.22v3.45a29 29 0 0 1-3.83.3m1.14-11.23a29.36 29.36 0 0 0-5.58.59l.32 2.63a33.64 33.64 0 0 1 5-.48c1.9 0 2.93.7 2.93 2.25v.16l-3.77.22c-3.94.16-5.81 1.49-5.81 4 0 2.79 1.77 4.34 5 4.34a41.59 41.59 0 0 0 7.49-.68v-8.12c0-3.37-1.79-4.91-5.59-4.91m-15.46.1a17.91 17.91 0 0 0-5.45.85 6.51 6.51 0 0 0-3.58-.85 37.78 37.78 0 0 0-6.7.68v12.56h3.12v-10.2a22.28 22.28 0 0 1 2.9-.19c2 0 3 .9 3 3v7.4h3.15v-8.28a6.23 6.23 0 0 0-.22-1.71 11.15 11.15 0 0 1 3.12-.41c2 0 3 1 3 3v7.35h3.12v-8.2c0-3.59-2.17-5-5.43-5m-26.75 11.13c-1.82 0-2.79-.63-2.79-1.74s.87-1.68 2.63-1.79l4-.22v3.45a29.12 29.12 0 0 1-3.83.3m1.14-11.23a29.55 29.55 0 0 0-5.59.59l.33 2.63a33.64 33.64 0 0 1 5-.48c1.9 0 2.93.7 2.93 2.25v.16l-3.77.22c-3.94.16-5.81 1.49-5.81 4 0 2.79 1.76 4.34 5 4.34a41.59 41.59 0 0 0 7.49-.68v-8.12c0-3.37-1.79-4.91-5.59-4.91m-16.14 10.85a19.26 19.26 0 0 1-3.72-.27v-7.63a27.68 27.68 0 0 1 3.48-.21c2.76 0 3.82 1.79 3.82 4.2a3.61 3.61 0 0 1-3.58 3.91m.19-10.75a44.72 44.72 0 0 0-7 .63V96h3.12v-6.33a28.81 28.81 0 0 0 4.15.22c3.72 0 6.22-2.74 6.22-6.62-.08-4.07-2.34-6.76-6.46-6.76m-11.37.41h-3.14v10.31a27.77 27.77 0 0 1-3.56.24c-1.95 0-2.93-1-2.93-3v-7.55h-3.14v8.25c0 3.58 2.2 5 5.4 5a45.44 45.44 0 0 0 7.37-.68zm-23.19 10.47a3.87 3.87 0 0 1-4-4.15 4 4 0 1 1 4 4.15m0-11c-4.29 0-7.19 2.77-7.19 6.89s2.9 7 7.19 7 7.16-2.79 7.16-7-2.9-6.89-7.16-6.89m-8.87.16a49.06 49.06 0 0 0-7.9.79v12.41h3.12v-10c1.58-.14 3.12-.19 4.78-.19zm-12.07 2.64h-9.74v3h6.64v4a21.21 21.21 0 0 1-5.42.82c-3.85 0-6.43-2.61-6.43-6.54s2.85-6.4 7.13-6.4a35.52 35.52 0 0 1 5.46.7l.65-3a26.92 26.92 0 0 0-6.35-.81c-6.18 0-10.31 3.82-10.31 9.55s3.94 9.71 9.85 9.71a21.79 21.79 0 0 0 8.52-2zM214.63 68.37v-1.19h3V66.1h-4.14v5.6h4.14v-1.08h-3v-1.19h2.6v-1.06zm-11.69.63v-1.87h1c.62 0 1.09.32 1.09.92a1 1 0 0 1-1.09 1zm.88-3c-.77 0-1.52 0-2.06.07v5.6h1.18v-1.62h.88a2.09 2.09 0 0 0 2.36-2c0-1.23-1-2-2.36-2m-9.72.07h-1.19v3.14a1.38 1.38 0 1 1-2.75 0V66.1H189v3.14a2.56 2.56 0 1 0 5.12 0zm-15.55 4.61a1.81 1.81 0 1 1 1.75-1.81 1.7 1.7 0 0 1-1.75 1.81m0-4.73a2.92 2.92 0 1 0 3 2.92 2.82 2.82 0 0 0-3-2.92M165 69v-1.88h1c.67 0 1.11.28 1.11.89a1 1 0 0 1-1 1zm1 1l1.16 1.72h1.43l-1.42-2a1.89 1.89 0 0 0 1.05-1.7c0-1.26-.91-2-2.28-2h-2.16v5.6H165V70h1zm-9.87-1.57h-3v1.07h1.9v1a6.47 6.47 0 0 1-1.5.22 1.69 1.69 0 0 1-1.76-1.8 1.79 1.79 0 0 1 2-1.77 12.75 12.75 0 0 1 1.64.21l.22-1.09a8 8 0 0 0-2-.25 2.85 2.85 0 0 0-3.13 2.9 2.8 2.8 0 0 0 3 2.94 6.83 6.83 0 0 0 2.6-.61zm-24.11 0v-1.25h3V66.1h-4.14v5.6H135v-1.08h-3v-1.19h2.6v-1.06zm-8.61 3.33v-1.12h-2.84V66.1h-1.17v5.6zM248.61 103.69V102h3.21v-.73h-4v5.64h4v-.73h-3.21v-1.73h2.86v-.73zm-2.09-2.31a7.78 7.78 0 0 0-2-.26 2.94 2.94 0 1 0 0 5.88 7.16 7.16 0 0 0 2-.33l-.15-.69a8.23 8.23 0 0 1-1.85.28 2.19 2.19 0 1 1 .1-4.38 6.83 6.83 0 0 1 1.69.25zm-6.45-.14h-.8v4.33l-3.38-4.33h-.75v5.64h.79v-4.31l3.37 4.31h.77zm-9 1l1.18 2.67h-2.35zm-1.49 3.38h3l.56 1.27h.86l-2.56-5.67h-.75l-2.56 5.67h.87zm-2.54-4.37h-.79v5.64h.79zm-5 2.67V102h3.11v-.73h-3.89v5.64h.74v-2.24h2.76v-.73zm-2.46-2.67h-.8v4.33l-3.38-4.33h-.75v5.64h.79v-4.31l3.37 4.31h.77zm-9.31 5a2.2 2.2 0 1 1 2.15-2.2 2.08 2.08 0 0 1-2.15 2.2m0-5.14a2.94 2.94 0 1 0 3 2.94 2.82 2.82 0 0 0-3-2.94m-3.83.26a7.78 7.78 0 0 0-1.95-.26 2.94 2.94 0 1 0 0 5.88 7.17 7.17 0 0 0 2-.33l-.15-.69a8.23 8.23 0 0 1-1.85.28 2.19 2.19 0 1 1 .1-4.38 6.83 6.83 0 0 1 1.69.25zm-11.5 2.31V102h3.2v-.73h-4v5.64h4v-.73h-3.2v-1.73h2.86v-.73zm-5 2.51h-1.26v-4.24h1.15a2.15 2.15 0 0 1 .11 4.3m-.11-5c-.67 0-1.49 0-1.94.06v5.64c.45 0 1.32.06 2.05.06a2.88 2.88 0 1 0-.11-5.76m-5.69.33a6.58 6.58 0 0 0-2.09-.36c-1.24 0-2.06.63-2.06 1.63s.5 1.27 1.75 1.53c.87.17 1.78.3 1.78 1 0 .6-.55.9-1.35.9a6 6 0 0 1-2.18-.47l-.2.74a6.68 6.68 0 0 0 2.35.47c1.27 0 2.17-.58 2.17-1.72s-.81-1.38-2.05-1.64c-1-.19-1.44-.35-1.44-.88s.47-.89 1.2-.89a7.23 7.23 0 0 1 1.92.33zm-9 2.73V102h1.19c.84 0 1.42.36 1.42 1.14a1.22 1.22 0 0 1-1.36 1.2zm2.77 2.64h.95l-1.55-2.13a1.76 1.76 0 0 0 1.21-1.71c0-1.21-.89-1.85-2.22-1.85h-1.95v5.64h.79V105h1.38zm-5.18-5.64h-.79v3.3a1.68 1.68 0 1 1-3.36 0v-3.3h-.79v3.3a2.47 2.47 0 0 0 4.94 0zm-9.35 2.45V102h3.21v-.73h-4v5.64h4v-.73h-3.21v-1.73h2.86v-.73zm-4-1.72h2.14v-.73h-5.07v.69h2.14v4.91h.79zm-5.64.26l1.18 2.67h-2.36zm-1.49 3.38h3l.56 1.27h.88l-2.69-5.74h-.74l-2.56 5.67h.88zm-5.65-1.92V102h3.21v-.73h-4v5.64h4v-.73h-3.21v-1.73h2.87v-.73zm2.58-4.22h-1l-.73 1.23h.81zm-8.21 4.77V102h1.19c.84 0 1.42.36 1.42 1.14a1.22 1.22 0 0 1-1.36 1.2zm2.77 2.64h1l-1.55-2.13a1.76 1.76 0 0 0 1.21-1.71c0-1.21-.89-1.85-2.22-1.85h-2v5.64h.79V105h1.38zm-4.87-5.5a7.71 7.71 0 0 0-1.95-.26 2.94 2.94 0 1 0 0 5.88 7.23 7.23 0 0 0 2-.33l-.15-.69a8.3 8.3 0 0 1-1.86.28 2.19 2.19 0 1 1 .1-4.38 6.77 6.77 0 0 1 1.69.25zm-8.53.13a6.7 6.7 0 0 0-2.1-.36c-1.23 0-2.06.63-2.06 1.63s.5 1.27 1.75 1.53c.87.17 1.78.3 1.78 1 0 .6-.55.9-1.35.9a6 6 0 0 1-2.18-.47l-.2.74a6.73 6.73 0 0 0 2.35.47c1.27 0 2.17-.58 2.17-1.72s-.81-1.38-2-1.64c-1-.19-1.44-.35-1.44-.88s.48-.89 1.21-.89a7.23 7.23 0 0 1 1.91.33zm-9 2.73V102h1.19c.85 0 1.42.36 1.42 1.14a1.21 1.21 0 0 1-1.36 1.2zm2.77 2.64h1l-1.56-2.13a1.77 1.77 0 0 0 1.22-1.71c0-1.21-.9-1.85-2.22-1.85h-2v5.64h.79V105h1.38zm-5.18-5.64h-.78v3.3a1.69 1.69 0 1 1-3.37 0v-3.3H114v3.3a2.47 2.47 0 0 0 4.93 0zm-9.35 2.45V102h3.21v-.73h-4v5.64h4v-.73h-3.21v-1.73h2.86v-.73zm-5.63.55V102h1.19c.84 0 1.41.36 1.41 1.14a1.21 1.21 0 0 1-1.35 1.2zm2.77 2.64h1l-1.55-2.13a1.76 1.76 0 0 0 1.21-1.71c0-1.21-.89-1.85-2.22-1.85h-2v5.64h.79V105h1.38zm-5.18-5.64h-.79v3.3a1.68 1.68 0 1 1-3.36 0v-3.3h-.79v3.3a2.47 2.47 0 0 0 4.94 0zm-6.41.27a6.6 6.6 0 0 0-2.1-.36c-1.23 0-2.06.63-2.06 1.63s.51 1.27 1.76 1.53c.87.17 1.77.3 1.77 1 0 .6-.55.9-1.34.9a6.09 6.09 0 0 1-2.19-.47l-.2.74a6.73 6.73 0 0 0 2.35.47c1.27 0 2.18-.58 2.18-1.72s-.82-1.38-2.06-1.64c-1-.19-1.43-.35-1.43-.88s.47-.89 1.2-.89a7.23 7.23 0 0 1 1.91.33zm-5.58 0a6.58 6.58 0 0 0-2.09-.36c-1.24 0-2.07.63-2.07 1.63s.51 1.27 1.76 1.53c.87.17 1.77.3 1.77 1 0 .6-.54.9-1.34.9a6.09 6.09 0 0 1-2.19-.47l-.19.74a6.64 6.64 0 0 0 2.35.47c1.27 0 2.17-.58 2.17-1.72s-.81-1.38-2.06-1.64c-1-.19-1.43-.35-1.43-.88s.47-.89 1.2-.89a7.36 7.36 0 0 1 1.92.33zm-8.23.72l1.17 2.67h-2.41zm-1.49 3.38h3l.55 1.27h.89l-2.56-5.67h-.75l-2.56 5.67h.89z"/><g class="cls-4"><path class="cls-5" d="M119.4 23h99.17v34.92H119.4z"/></g></svg>