<svg xmlns:xlink="http://www.w3.org/1999/xlink" xmlns="http://www.w3.org/2000/svg" width="185" height="64" viewBox="0 0 185 64"><path fill="#0A6E46" d="M38.17,36.36h7.42c-.66,2.74-4.44,8.53-12.41,8.53-7.17,0-13.06-5.96-13.06-12.89s5.61-12.89,13.06-12.89c5.25,0,10.21,3.23,12.27,7.95h5.53c-2.39-8.44-9.83-13.14-18.02-13.14-9.97,0-18.08,8.11-18.08,18.08s8.11,18.08,18.08,18.08c12.31,0,18.66-9.83,18.57-18.33h-16.03l2.67,4.62ZM32.86,22.52l-2.38,9.22h-3.97l-2.67,4.62h8.99l2.67-4.62-2.38-9.22h-.26ZM66.13,31.56l1.34,2.79h2.45c-.05,1.95-2.12,3.06-3.92,3.06-2.87.02-5.31-2.45-5.3-5.32.01-3.63,2.95-5.25,5.18-5.25,1.61,0,3.02.78,4.17,1.91l1.96-2.06c-1.4-1.8-3.82-2.75-6.11-2.75-4.91,0-8.37,3.65-8.38,8.15,0,3.58,2.52,8.23,8.34,8.22,2.98,0,7.26-1.98,7.23-7.05,0-.14-.03-1.24-.13-1.71h-6.84ZM82.68,28.02c-.96-.36-2.13-.3-3.06.2-.7.36-1.34.94-1.77,1.62l-.02-1.8h-2.91v12.05h2.97v-6.42c0-.77.26-1.44.78-1.96,1.27-1.29,2.87-.66,3.29-.42l.79-3.23-.07-.03ZM88.87,27.79c-4.27,0-6.29,3.31-6.29,6.26,0,3.21,2.25,6.26,6.29,6.26,3.71,0,6.29-2.69,6.29-6.26,0-3.38-2.3-6.26-6.29-6.26ZM88.87,37.68c-1.95,0-3.29-1.73-3.29-3.63,0-1.91,1.33-3.63,3.29-3.63s3.29,1.72,3.29,3.63c0,1.9-1.34,3.63-3.29,3.63ZM104.75,35.25c.04,1.43-1.17,2.57-2.59,2.52-1.6.04-2.47-1.04-2.41-2.91v-6.83h-2.95v7.41c.01,4.9,4.05,5.43,6.17,4.46.73-.33,1.35-.79,1.83-1.41l.03,1.58h2.88v-12.05h-2.95v7.21ZM116.81,27.84c-1.35,0-2.79.6-3.67,1.58l-.02-1.38h-2.91v16.08h2.97v-5.31c.92.91,2.34,1.48,3.67,1.48,3.31,0,5.54-3.03,5.5-6.24-.04-3.84-2.14-6.2-5.54-6.22ZM116.29,37.66c-1.97,0-3.22-1.71-3.22-3.6,0-1.9,1.25-3.59,3.22-3.58,1.96,0,3.18,1.69,3.18,3.58,0,1.88-1.23,3.6-3.18,3.6ZM132.71,29.53c-.87-1.15-2.22-1.75-3.7-1.73-3.34-.06-5.65,3.01-5.57,6.24-.07,3.13,2.13,6.3,5.39,6.28,1.47,0,2.89-.66,3.85-1.73v1.51h3v-12.05h-2.97v1.48ZM129.6,37.68c-1.99,0-3.16-1.75-3.16-3.65s1.19-3.61,3.16-3.6c1.97,0,3.2,1.71,3.2,3.6,0,1.91-1.21,3.65-3.2,3.65ZM152.2,27.84c-1.57,0-3.19.9-4.04,2.22-.57-1.52-1.97-2.24-3.58-2.22-1.34.02-2.7.69-3.53,1.73l-.03-1.53h-2.91v12.05h2.97v-7.21c-.03-1.4,1.24-2.41,2.59-2.41,1.43,0,2.07,1.18,2.03,2.52v7.1h2.97v-7.19c-.03-1.4,1.25-2.47,2.61-2.43,1.51-.06,2.13,1.13,2.07,2.55v7.07h2.97v-7.25c-.05-4.33-2.32-5.01-4.15-5ZM167.14,28.04v1.48c-.87-1.15-2.22-1.75-3.7-1.73-3.34-.06-5.65,3.01-5.57,6.24-.07,3.13,2.13,6.3,5.39,6.28,1.47,0,2.89-.66,3.85-1.73v1.51h3v-12.05h-2.97ZM164.03,37.68c-1.99,0-3.16-1.75-3.16-3.65s1.19-3.61,3.16-3.6c1.97,0,3.2,1.71,3.2,3.6s-1.21,3.65-3.2,3.65Z"></path></svg>