<svg xmlns:xlink="http://www.w3.org/1999/xlink" xmlns="http://www.w3.org/2000/svg" viewBox="0 0 20 20" fill="none" width="24" height="24" data-testid="svg-icon" name="header/PinMap" aria-hidden="true" focusable="false" class="sc-53f398e-0 hbkdvl localisation-icon" color="brand.0" opacity="1" mr="6px"><g clip-path="url(#clip0_1347_1172)" fill="#FFFFFF"><path d="M11.3834 19.6772C6.84281 13.0947 6 12.4192 6 10C6 6.68628 8.68628 4 12 4C15.3137 4 18 6.68628 18 10C18 12.4192 17.1572 13.0947 12.6166 19.6772C12.3187 20.1076 11.6813 20.1076 11.3834 19.6772ZM12 12.5C13.3807 12.5 14.5 11.3807 14.5 10C14.5 8.61928 13.3807 7.5 12 7.5C10.6193 7.5 9.5 8.61928 9.5 10C9.5 11.3807 10.6193 12.5 12 12.5Z" fill="#FFFFFF"></path></g><defs><clipPath id="clip0_1347_1172"><rect width="24" height="24" fill="white"></rect></clipPath></defs></svg>