<svg xmlns:xlink="http://www.w3.org/1999/xlink" xmlns="http://www.w3.org/2000/svg" viewBox="0 0 20 20" fill="none" width="20" height="20" data-testid="svg-icon" name="header/User" aria-hidden="true" focusable="false" mr="5" class="sc-53f398e-0 eLaPib"><path d="M9.99999 10C11.8411 10 13.3333 8.50781 13.3333 6.66667C13.3333 4.82552 11.8411 3.33334 9.99999 3.33334C8.15884 3.33334 6.66666 4.82552 6.66666 6.66667C6.66666 8.50781 8.15884 10 9.99999 10ZM12.3333 10.8333H11.8984C11.3203 11.099 10.6771 11.25 9.99999 11.25C9.32291 11.25 8.68228 11.099 8.10155 10.8333H7.66666C5.73436 10.8333 4.16666 12.401 4.16666 14.3333V15.4167C4.16666 16.1068 4.72655 16.6667 5.41666 16.6667H14.5833C15.2734 16.6667 15.8333 16.1068 15.8333 15.4167V14.3333C15.8333 12.401 14.2656 10.8333 12.3333 10.8333Z" fill="#FFFFFF"></path></svg>